<?xml version="1.0" encoding="UTF-8" standalone="no"?>

<svg version="1.1"
	 id="svg1"
	 width="2000"
	 height="1333.3333"
	 viewBox="0 0 2000 1333.3333"
	 xmlns="http://www.w3.org/2000/svg"
	 xmlns:svg="http://www.w3.org/2000/svg">
	<path style="fill:#ff0000"
		  d="M 0,666.66663 V 0 H 1000 2000 V 666.66663 1333.3333 H 1000 0 Z" />
	<path style="fill:#ffff00"
		  d="m 671.00529,644.37311 -15.33333,-19.72613 -43.15042,10.98563 13.44385,-18.0691 L 640,598.74146 l -12.57564,-20.35585 -12.18195,-19.40583 22.58368,7.86077 22.62201,7.70693 29.16995,-36.54751 -1.00933,37.33333 -0.66703,10.66666 21.13105,7.77828 22.65335,8.7191 -20.54316,6.87642 -23.21911,6.64856 -2.2254,24.67865 -1.07175,23.96566 z m 92.27956,-125.55371 6.60021,-22.71802 5.80234,-20.20413 -4.17703,-3.11675 -20.05162,-13.61531 -15.87458,-10.49855 11.87458,-0.85882 24.15146,-1 12.27687,-0.14118 2.72313,-9.33333 5.47165,-19 13.8444,3.81077 8.26122,22.52256 23.57293,-0.51408 23.57292,0.27315 -17.4536,14.3851 -18.02332,15.08255 7.27498,22.79564 7.47566,21.74752 -18.55206,-11.73308 -20.0667,-12.89246 -19.92465,13.39974 -18.80882,14.12258 0.03,-2.5139 z m -546.58283,-26.98579 22.14285,-68.32814 21.13399,-66 -57.97344,-42.83882 -57.97886,-43 72.30677,-1.0196 72.33334,-0.0196 21.96856,-67.98039 22.6981,-67.98039 22.6981,67.98039 21.96857,67.98038 72.33333,0.0196 72.30677,1.0196 -57.97886,43 -57.97343,42.83103 21.9771,68.55731 21.56391,68.16061 -58.31282,-41.57925 -59.40537,-41.42766 -57.35209,41.09986 -57.63472,41.60298 -0.8218,-2.07792 z m 571.26364,-161.5003 -6.86559,-45.62106 -22.4334,-4.05763 -23.04596,-4.61371 19.76653,-10.77578 21.29886,-10.62993 -2.73218,-22.7111 -3.25291,-23.62951 16.75992,15.62867 16.79426,17.33407 5.42966,-2.77001 21.94012,-10.5735 16.51047,-7.8035 -11.34374,21.68868 -11.34375,21.68868 16.64403,16.58948 14.75821,16.99192 -20.981,-3 -22.06107,-3.40243 L 800,311.33331 788.57888,331.99998 Z m -119.29899,-152.99999 -12.78123,-20 -23.33113,5.24209 -22.78513,4.97154 15.47714,-18.33995 15.74768,-18.06941 -12.38613,-20.56856 -12.06838,-20.8863 21.97536,8.999763 22.10419,9.317497 16.12797,-18.00801 15.98574,-17.666665 -1.68572,22.686337 -1.322,24.085908 22.19004,10.82536 21.13679,9.38742 -23.05186,5.42142 -23.48237,6.30718 -2.52626,23.74155 -2.53529,22.55283 z" />
</svg>