<?xml version="1.0" encoding="UTF-8" standalone="no"?>

<svg width="8192"
	 height="8192"
	 viewBox="0 0 384 384"
	 xmlns:xlink="http://www.w3.org/1999/xlink"
	 xmlns="http://www.w3.org/2000/svg"
	 xmlns:svg="http://www.w3.org/2000/svg">

	<defs id="defs448">
		<linearGradient id="linearGradient8524">
			<stop style="stop-color:#bfbfbf;stop-opacity:1;"
				  offset="0" />
			<stop style="stop-color:#ffffff;stop-opacity:1;"
				  offset="1" />
		</linearGradient>
		<linearGradient id="linearGradient4654">
			<stop style="stop-color:#b2b200;stop-opacity:1;"
				  offset="0" />
			<stop style="stop-color:#ffff4c;stop-opacity:1;"
				  offset="1" />
		</linearGradient>
		<linearGradient id="linearGradient4108">
			<stop style="stop-color:#808080;stop-opacity:1;"
				  offset="0" />
			<stop style="stop-color:#ffffff;stop-opacity:1;"
				  offset="1" />
		</linearGradient>
		<linearGradient id="linearGradient3952">
			<stop style="stop-color:#000000;stop-opacity:1;"
				  offset="0" />
			<stop style="stop-color:#404040;stop-opacity:1;"
				  offset="1" />
		</linearGradient>
		<linearGradient xlink:href="#linearGradient3952"
						id="linearGradient3954"
						x1="13.451342"
						y1="22.946651"
						x2="36.524052"
						y2="22.946651"
						gradientUnits="userSpaceOnUse"
						spreadMethod="pad"
						gradientTransform="scale(8)" />
		<linearGradient xlink:href="#linearGradient4108"
						id="linearGradient4266"
						x1="19.856735"
						y1="13.143838"
						x2="27.357735"
						y2="13.143838"
						gradientUnits="userSpaceOnUse"
						gradientTransform="scale(8)" />
		<linearGradient xlink:href="#linearGradient4654"
						id="linearGradient4656"
						x1="28.557735"
						y1="36.443836"
						x2="39.557735"
						y2="36.443836"
						gradientUnits="userSpaceOnUse"
						gradientTransform="scale(8)" />
		<linearGradient xlink:href="#linearGradient8524"
						id="linearGradient8526"
						x1="16.139091"
						y1="26.900585"
						x2="31.523993"
						y2="26.900585"
						gradientUnits="userSpaceOnUse"
						gradientTransform="scale(8)" />
	</defs>
	<path fill="#263238"
		  d="m 270.86188,174.7507 c -4.416,-6.344 -25.136,-37.608 -28.8,-52.8 -5.6,-23.199996 -0.704,-24.183996 -3.2,-36.799996 -2.072,-10.472002 -6.4,-17.600002 -10.4,-23.200002 -4.8,-5.6 -7.72,-8.008 -11.232,-10.144 -7.2,-4 -26.368,-9.856 -47.168,1.344 -21.6,11.2 -19.2,35.200002 -15.2,83.999998 1.352,15.4 -27.2,45.6 -31.2,54.4 -9.6,18.4 -16.728,37.96 -16,50.4 1.568,34.536 14.328,79.728 54.4,77.6 3.2,-0.8 16.8,-0.8 28.8,-0.8 16.8,-0.8 26.4,-1.6 40,1.6 22.88,2.352 54.536,-25.928 60.8,-79.2 3.12,-23.128 -8,-48 -20.8,-66.4 z"
		  style="fill:url(#linearGradient3954);fill-opacity:1;stroke-width:8" />
	<path style="fill:url(#linearGradient8526);fill-opacity:1;stroke-width:8"
		  d="m 212.44262,126.46802 c -13.90463,0.0312 -50.23681,11.89087 -50.23681,11.89087 0,0 3.06413,23.74421 -15.70386,49.78417 -10.87703,15.09155 -15.96327,31.59828 -17.12475,46.01808 -0.95422,-2.23839 -5.83178,-16.16917 6.28491,-44.21046 -19.41598,28.83198 -15.71197,49.00803 -7.03198,54.62402 0.20952,0.13552 0.41128,0.26112 0.60648,0.3772 0.35248,6.08477 1.44689,11.52217 3.09741,15.95875 6.12799,16.47198 50.93616,76.97636 109.15209,17.23241 3.64821,-3.79449 7.0718,-12.7602 9.02491,-24.11792 2.12068,0.89284 5.32829,0.18832 7.95117,-2.43456 6.12799,-6.128 29.87203,-48.75992 -14.67993,-69.1919 0,0 38.24053,23.71043 8.10424,60.17798 1.16716,-16.47212 -0.85909,-35.53298 -8.87255,-50.98608 -16.08798,-31.02397 -23.74428,-55.52791 -25.28028,-63.1919 -0.276,-1.37712 -2.24524,-1.93755 -5.29101,-1.93066 z" />
	<path fill="#eceff1"
		  d="m 169.26188,89.950704 c -5.744,-0.008 -10.4,7.152 -10.408,15.991996 0,8.84 4.648,16.008 10.392,16.008 0.008,0 0.008,0 0.016,0 5.744,0.008 10.4,-7.152 10.408,-15.992 0.008,-8.839996 -4.648,-16.007996 -10.392,-16.007996 -0.008,0 -0.008,0 -0.016,0 z m 36,-3.2 c -7.512,0 -13.6,8.24 -13.6,18.399996 0,10.16 6.088,18.4 13.6,18.4 7.512,0 13.6,-8.24 13.6,-18.4 0,-10.159996 -6.088,-18.399996 -13.6,-18.399996 z"
		  style="fill:url(#linearGradient4266);fill-opacity:1;stroke-width:8" />
	<ellipse cx="154.81776"
			 cy="127.93013"
			 fill="#212121"
			 rx="5.5999999"
			 ry="9.6000004"
			 transform="rotate(-7.207)"
			 style="fill:#000000;stroke-width:8" />
	<path fill="#212121"
		  d="m 204.58988,97.694704 c -4.416,0 -8,4.647996 -8.008,10.391996 -0.008,5.744 3.576,10.4 7.992,10.408 0,0 0.008,0 0.008,0 4.416,0 8,-4.648 8.008,-10.392 0.008,-5.744 -3.576,-10.399996 -7.992,-10.407996 0,0 -0.008,0 -0.008,0 z"
		  style="fill:#000000;stroke-width:8" />
	<path style="fill:url(#linearGradient4656);fill-opacity:1;stroke-width:8"
		  d="m 182.86158,111.55078 c -8.8,0 -17.59991,8.00005 -18.39991,8.80005 -4.8,3.99999 -7.99951,5.59967 -7.99951,10.39966 0,4.79999 4.00005,8.0002 8.80005,11.20019 3.99999,4 7.99965,8.00006 10.39965,8.80006 3.2,0.8 8.0002,0.79984 11.2002,0.79984 7.2,0 17.59947,-8.79966 23.19946,-10.39966 7.99999,-4 8.80059,-5.60035 9.60059,-13.60034 0.8,-5.6 -6.40035,-7.20005 -13.60034,-8.80005 -4,-1.6 -14.40021,-7.19971 -23.20019,-7.19971 z m -68.80006,128.80005 c -4.79999,0 -7.19966,2.4001 -10.39966,5.6001 -3.19999,3.2 -6.400004,10.39941 -11.999996,14.39941 -4.799992,4 -18.399855,3.20025 -21.599852,8.00024 -3.199997,4.8 3.199951,12.00002 3.199951,24 0,4.8 -4.000294,8.0002 -4.800293,11.2002 -0.8,4 -1.599999,6.39986 0,9.59985 3.199996,4.8 7.200417,6.40001 34.40039,12 14.39999,3.2 27.99981,11.2 36.7998,12 8.8,0.8 24,1.3e-4 24,-21.59985 0.8,-12.79999 -6.40034,-16.00031 -13.60034,-28.80029 -7.99999,-12.79999 -8.79942,-15.19947 -14.39941,-23.19947 -4.8,-7.99999 -15.20059,-23.20019 -21.60059,-23.20019 z m 128.08814,6.36767 c -0.48784,0.007 -0.99548,0.0584 -1.52491,0.15672 -7.42865,1.07398 -8.46123,10.39472 -8.10131,16.43116 0.87482,16.36032 -2.59662,32.30526 -4.71094,48.38085 -0.75552,8.89229 1.23134,20.8141 11.28149,23.50049 10.70745,2.81043 23.15045,0.78184 30.68702,-7.89111 12.8996,-11.58449 28.86497,-19.10562 43.17187,-28.76514 5.59026,-2.9312 5.87456,-12.48133 -0.6592,-14.40308 -8.37523,-3.2904 -16.65714,-10.35588 -16.36743,-19.96362 -0.86759,-5.04849 -1.67025,-13.23189 -8.16065,-13.75855 -10.72324,1.70564 -21.18951,10.15936 -32.12915,4.61792 -4.68386,-2.51981 -7.73014,-8.39321 -13.48682,-8.30566 z" />
	<g style="fill:#808000"
	   transform="matrix(8,0,0,8,-3.5381202,-0.4492984)">
		<path fill="#634703"
			  d="m 20.52,16.276 c 0,0 0.964,1.054 2.298,1 1.334,-0.054 3.208,-1.099 3.965,-1.586 0.333,-0.171 0.469,-0.009 0.153,0.27 -0.353,0.313 -2.603,1.574 -3.505,1.694 -0.27,0.036 -1.099,0.045 -1.334,-0.027 -0.235,-0.072 -1.447,-0.733 -1.703,-1.117 -0.198,-0.298 0.081,-0.298 0.126,-0.234 z"
			  style="fill:#808000" />
		<path fill="#634703"
			  d="m 22.755,14.924 c 0,0 -0.171,0.015 -0.284,0.152 -0.113,0.137 -0.239,-0.079 -0.131,-0.197 0.108,-0.118 0.225,-0.252 0.469,-0.18 0.244,0.072 0.009,0.207 -0.054,0.225 z"
			  style="fill:#808000" />
		<path fill="#634703"
			  d="m 24.02,14.924 c 0,0 0.171,0.015 0.284,0.152 0.113,0.137 0.239,-0.079 0.131,-0.197 -0.108,-0.118 -0.225,-0.252 -0.469,-0.18 -0.244,0.072 -0.009,0.207 0.054,0.225 z"
			  style="fill:#808000" />
	</g>
</svg>
