<?xml version="1.0" encoding="UTF-8" standalone="no"?>
<svg width="60"
	 height="300"
	 viewBox="0 0 6 30"
	 xmlns="http://www.w3.org/2000/svg"
	 xmlns:svg="http://www.w3.org/2000/svg">

	<path style="fill: #000000;"
		  d="m 4.3294329,2.8199943 v -1.272 h 0.52 v 1.84 h -0.472 l -2.448,-1.012 v -0.576 z m -2.494866,1.1999994 v 3.34 h 0.292 v -3.34 z m -0.668,0.796 v 0.284 h 1.528 v -0.284 z m 0.684,0.108 c -0.14,0.496 -0.456,1.12 -0.74,1.44 0.052,0.068 0.124,0.192 0.156,0.276 0.3,-0.372 0.612,-1.072 0.772,-1.636 z m 0.632,-1.18 c -0.304,0.136 -0.828,0.252 -1.28,0.324 0.032,0.068 0.072,0.168 0.088,0.236 0.456,-0.064 1.008,-0.172 1.376,-0.316 z m -0.368,1.42 -0.144,0.124 c 0.116,0.152 0.412,0.608 0.504,0.792 l 0.184,-0.236 c -0.08,-0.112 -0.444,-0.576 -0.544,-0.68 z m 0.852,-0.796 c -0.064,0.44 -0.164,0.904 -0.312,1.208 0.068,0.028 0.196,0.088 0.256,0.124 0.14,-0.32 0.264,-0.812 0.336,-1.28 z m 1.124,0.036 c 0.192,0.34 0.376,0.8 0.448,1.096 l 0.276,-0.096 c -0.076,-0.3 -0.264,-0.744 -0.464,-1.088 z m 0.26,1.244 c -0.296,0.784 -0.92,1.236 -1.916,1.444 0.064,0.068 0.128,0.184 0.16,0.268 1.052,-0.256 1.72,-0.756 2.036,-1.628 z m -0.824,-1.956 v 2.472 h 0.284 v -2.472 z m 0.802866,6.2280067 v -1.272 h 0.52 V 10.488 h -0.472 l -2.448,-1.0119996 v -0.576 z m -2.448,2.7240056 q 0,-0.388 0.144,-0.644 0.148,-0.256 0.424,-0.396 l 0.24,0.5 q -0.164,0.084 -0.252,0.228 -0.088,0.144 -0.088,0.336 0,0.2 0.084,0.3 0.084,0.1 0.2,0.1 0.064,0 0.104,-0.048 0.04,-0.044 0.068,-0.12 0.032,-0.072 0.052,-0.172 0.02,-0.1 0.044,-0.208 0.028,-0.152 0.072,-0.3 0.048,-0.144 0.124,-0.26 0.08,-0.116 0.2,-0.188 0.124,-0.072 0.308,-0.072 0.14,0 0.268,0.064 0.132,0.064 0.232,0.184 0.1,0.12 0.156,0.288 0.06,0.172 0.06,0.384 0,0.352 -0.132,0.584 -0.128,0.236 -0.352,0.372 l -0.232,-0.46 q 0.124,-0.072 0.196,-0.2 0.072,-0.128 0.072,-0.296 0,-0.192 -0.076,-0.284 -0.076,-0.092 -0.176,-0.092 -0.116,0 -0.168,0.136 -0.048,0.136 -0.104,0.4 -0.032,0.144 -0.076,0.288 -0.044,0.148 -0.124,0.268 -0.076,0.12 -0.2,0.192 -0.12,0.076 -0.304,0.076 -0.124,0 -0.26,-0.056 -0.132,-0.056 -0.248,-0.176 -0.112,-0.116 -0.184,-0.296 -0.072,-0.18 -0.072,-0.432 z m 0,2.351999 q 0,-0.276 0.092,-0.504 0.096,-0.228 0.26,-0.392 0.164,-0.16 0.384,-0.252 0.224,-0.088 0.476,-0.088 0.256,0 0.48,0.092 0.224,0.096 0.388,0.26 0.164,0.164 0.26,0.384 0.096,0.224 0.096,0.48 0,0.26 -0.092,0.48 -0.088,0.224 -0.252,0.384 -0.16,0.16 -0.38,0.248 -0.22,0.092 -0.48,0.092 h -0.204 v -1.904 q -0.248,0.056 -0.4,0.244 -0.152,0.188 -0.152,0.476 0,0.228 0.112,0.396 0.112,0.168 0.3,0.252 l -0.256,0.444 q -0.284,-0.152 -0.46,-0.428 -0.172,-0.272 -0.172,-0.664 z m 1.96,-0.02 q 0,-0.244 -0.132,-0.424 -0.132,-0.176 -0.348,-0.248 l 0,1.328 q 0.236,-0.06 0.356,-0.232 0.124,-0.172 0.124,-0.424 z m -1.96,2.584 q 0,-0.256 0.096,-0.48 0.096,-0.22 0.26,-0.384 0.164,-0.164 0.384,-0.26 0.224,-0.092 0.476,-0.092 0.256,0 0.476,0.092 0.224,0.096 0.388,0.26 0.168,0.164 0.26,0.384 0.096,0.224 0.096,0.48 0,0.196 -0.056,0.368 -0.052,0.176 -0.148,0.32 -0.096,0.144 -0.228,0.252 -0.132,0.108 -0.292,0.176 l -0.204,-0.484 q 0.192,-0.08 0.304,-0.248 0.116,-0.164 0.116,-0.38 0,-0.148 -0.056,-0.276 -0.056,-0.124 -0.152,-0.22 -0.096,-0.092 -0.228,-0.144 -0.128,-0.052 -0.276,-0.052 -0.144,0 -0.276,0.052 -0.128,0.052 -0.224,0.144 -0.096,0.096 -0.152,0.22 -0.056,0.128 -0.056,0.28 0,0.228 0.12,0.388 0.124,0.164 0.316,0.244 l -0.208,0.484 q -0.164,-0.068 -0.3,-0.176 -0.132,-0.108 -0.232,-0.252 -0.096,-0.14 -0.152,-0.316 -0.052,-0.176 -0.052,-0.38 z m 0,2.444005 q 0,-0.252 0.092,-0.476 0.096,-0.22 0.26,-0.384 0.168,-0.164 0.388,-0.26 0.224,-0.092 0.476,-0.092 0.256,0 0.476,0.092 0.224,0.096 0.388,0.26 0.164,0.164 0.26,0.384 0.096,0.224 0.096,0.476 0,0.252 -0.096,0.472 -0.096,0.22 -0.26,0.384 -0.164,0.168 -0.388,0.26 -0.22,0.096 -0.476,0.096 -0.252,0 -0.476,-0.096 -0.22,-0.092 -0.388,-0.26 -0.164,-0.164 -0.26,-0.384 -0.092,-0.22 -0.092,-0.472 z m 0.508,0 q 0,0.144 0.056,0.268 0.056,0.124 0.152,0.216 0.096,0.092 0.224,0.144 0.132,0.052 0.276,0.052 0.148,0 0.276,-0.052 0.132,-0.052 0.228,-0.144 0.096,-0.092 0.152,-0.216 0.056,-0.124 0.056,-0.268 0,-0.144 -0.056,-0.272 -0.056,-0.124 -0.152,-0.216 -0.096,-0.088 -0.228,-0.14 -0.128,-0.052 -0.276,-0.052 -0.144,0 -0.276,0.052 -0.128,0.052 -0.224,0.14 -0.096,0.092 -0.152,0.216 -0.056,0.128 -0.056,0.272 z m 1.88,1.448 v 0.536 h -0.288 q 0.152,0.116 0.244,0.292 0.092,0.18 0.092,0.408 0,0.436 -0.264,0.68 -0.264,0.248 -0.736,0.248 h -1.388 l 0,-0.548 h 1.332 q 0.272,0 0.428,-0.132 0.16,-0.132 0.16,-0.396 0,-0.232 -0.164,-0.392 -0.164,-0.156 -0.472,-0.156 h -1.284 v -0.54 z m -2.388,3.551998 q 0,-0.212 0.08,-0.42 0.084,-0.204 0.24,-0.368 0.156,-0.164 0.38,-0.264 0.228,-0.1 0.516,-0.1 0.292,0 0.516,0.096 0.228,0.1 0.384,0.26 0.156,0.164 0.236,0.372 0.084,0.208 0.084,0.432 0,0.228 -0.088,0.424 -0.084,0.196 -0.236,0.324 h 0.896 v 0.544 h -2.96 v -0.54 h 0.304 q -0.164,-0.128 -0.26,-0.328 -0.092,-0.2 -0.092,-0.432 z m 0.496,0.088 q 0,0.148 0.056,0.276 0.056,0.132 0.156,0.224 0.1,0.092 0.232,0.144 0.132,0.056 0.284,0.056 0.148,0 0.28,-0.056 0.132,-0.052 0.228,-0.144 0.1,-0.092 0.156,-0.224 0.056,-0.128 0.056,-0.276 0,-0.152 -0.056,-0.28 -0.056,-0.128 -0.152,-0.224 -0.096,-0.096 -0.228,-0.152 -0.132,-0.052 -0.284,-0.052 -0.152,0 -0.288,0.052 -0.132,0.056 -0.232,0.152 -0.096,0.096 -0.152,0.224 -0.056,0.128 -0.056,0.28 z m -0.496,2.399998 q 0,-0.388 0.144,-0.644 0.148,-0.256 0.424,-0.396 l 0.24,0.5 q -0.164,0.084 -0.252,0.228 -0.088,0.144 -0.088,0.336 0,0.2 0.084,0.3 0.084,0.1 0.2,0.1 0.064,0 0.104,-0.048 0.04,-0.044 0.068,-0.12 0.032,-0.072 0.052,-0.172 0.02,-0.1 0.044,-0.208 0.028,-0.152 0.072,-0.3 0.048,-0.144 0.124,-0.26 0.08,-0.116 0.2,-0.188 0.124,-0.072 0.308,-0.072 0.14,0 0.268,0.064 0.132,0.064 0.232,0.184 0.1,0.12 0.156,0.288 0.06,0.172 0.06,0.384 0,0.352 -0.132,0.584 -0.128,0.236 -0.352,0.372 l -0.232,-0.46 q 0.124,-0.072 0.196,-0.2 0.072,-0.128 0.072,-0.296 0,-0.192 -0.076,-0.284 -0.076,-0.092 -0.176,-0.092 -0.116,0 -0.168,0.136 -0.048,0.136 -0.104,0.4 -0.032,0.144 -0.076,0.288 -0.044,0.148 -0.124,0.268 -0.076,0.12 -0.2,0.192 -0.12,0.076 -0.304,0.076 -0.124,0 -0.26,-0.056 -0.132,-0.056 -0.248,-0.176 -0.112,-0.116 -0.184,-0.296 -0.072,-0.18 -0.072,-0.432 z" />
</svg>
