<?xml version="1.0" encoding="UTF-8" standalone="no"?>
<svg width="60"
	 height="300"
	 viewBox="0 0 6 30"
	 xmlns="http://www.w3.org/2000/svg"
	 xmlns:svg="http://www.w3.org/2000/svg">

	<style>
		rect {
			fill: #000000;
		}

		#s {
			fill: #ff0000;
		}
	</style>

	<!-- 手机/smartphone -->
	<rect width="5"
		  height="30"
		  x="0"
		  y="0" />


	<!-- 按钮文字/buttons text -->
	<path style="fill:#00ffff"
		  d="M 2 6 L 2 7 L 1 7 L 1 8 L 2 8 L 2 9 L 3 9 L 3 8 L 4 8 L 4 7 L 3 7 L 3 6 L 2 6 z M 1 13 L 1 14 L 4 14 L 4 13 L 1 13 z M 2.6128906 20.341602 C 2.3885242 20.341602 2.1853535 20.373219 2.0033203 20.436719 C 1.8255205 20.495985 1.6730936 20.578542 1.5460938 20.684375 C 1.4190939 20.790208 1.3216395 20.913035 1.2539062 21.052734 C 1.186173 21.188201 1.1523438 21.329958 1.1523438 21.478125 C 1.1523438 21.672858 1.190597 21.835954 1.2667969 21.967188 C 1.3429968 22.094187 1.4424678 22.199904 1.5652344 22.28457 C 1.6880009 22.365004 1.8255298 22.430645 1.9779297 22.481445 C 2.1345629 22.528012 2.2932351 22.566265 2.4541016 22.595898 C 2.5684014 22.621298 2.6785418 22.644458 2.784375 22.665625 C 2.8902082 22.686792 2.981222 22.714376 3.0574219 22.748242 C 3.1378551 22.777875 3.2012849 22.813917 3.2478516 22.85625 C 3.2986515 22.898583 3.3240234 22.953556 3.3240234 23.021289 C 3.3240234 23.144056 3.2712629 23.249772 3.1654297 23.338672 C 3.0595965 23.427572 2.900729 23.47207 2.6890625 23.47207 C 2.4858627 23.47207 2.3080639 23.425555 2.1556641 23.332422 C 2.0032642 23.239289 1.8826499 23.105988 1.79375 22.932422 L 1 23.313281 C 1.1481665 23.605381 1.3577779 23.82989 1.6287109 23.986523 C 1.899644 24.138923 2.2403436 24.215039 2.6509766 24.215039 C 2.9176763 24.215039 3.1462189 24.176981 3.3367188 24.100781 C 3.5272186 24.024581 3.6838741 23.927127 3.8066406 23.808594 C 3.9336405 23.685827 4.0268662 23.554739 4.0861328 23.415039 C 4.1453994 23.271106 4.175 23.133382 4.175 23.002148 C 4.175 22.807415 4.1347301 22.646531 4.0542969 22.519531 C 3.978097 22.388298 3.8766092 22.282582 3.7496094 22.202148 C 3.6226095 22.117482 3.4806566 22.05184 3.3240234 22.005273 C 3.1716236 21.958707 3.019392 21.918437 2.8669922 21.88457 C 2.5875925 21.825304 2.3757691 21.770331 2.2318359 21.719531 C 2.0879027 21.664498 2.0160156 21.575501 2.0160156 21.452734 C 2.0160156 21.346901 2.0647428 21.253871 2.1621094 21.173438 C 2.2594759 21.093004 2.4096908 21.052734 2.6128906 21.052734 C 2.7906904 21.052734 2.947346 21.090792 3.0828125 21.166992 C 3.218279 21.243192 3.3241907 21.346892 3.4003906 21.478125 L 4.1304688 21.109961 C 3.9865356 20.872895 3.7898055 20.686638 3.5400391 20.551172 C 3.294506 20.411472 2.9854236 20.341602 2.6128906 20.341602 z " />


	<!-- 按钮 -->
	<!-- + -->
	<rect width="1"
		  height="5"
		  x="5"
		  y="5"
		  id="a" />
	<!--  -  -->
	<rect width="1"
		  height="5"
		  x="5"
		  y="11"
		  id="m" />
	<!--  s  -->
	<rect width="1"
		  height="5"
		  x="5"
		  y="20"
		  id="s" />

</svg>
