<?xml version="1.0" encoding="UTF-8" standalone="no"?>
<svg width="64"
	 height="300"
	 viewBox="0 0 6.4 30"
	 xmlns="http://www.w3.org/2000/svg"
	 xmlns:svg="http://www.w3.org/2000/svg">

	<path style="fill:#000000;"
		  d="M 1.7 0 C 1.4243363 0 1.2 0.22433676 1.2 0.5 L 1.2 1.8333984 C 1.2 2.1090616 1.4243363 2.3333984 1.7 2.3333984 L 4.7 2.3333984 C 4.9756637 2.3333984 5.2 2.1090617 5.2 1.8333984 L 5.2 0.5 C 5.2 0.22433676 4.9756637 5.9211835e-17 4.7 0 L 1.7 0 z M 2.3666016 0.66660156 L 4.0333984 0.66660156 C 4.3090622 0.66660156 4.5333984 0.8909383 4.5333984 1.1666016 C 4.5333984 1.4422647 4.3090622 1.6666016 4.0333984 1.6666016 L 2.3666016 1.6666016 C 2.0909376 1.6666016 1.8666016 1.4422647 1.8666016 1.1666016 C 1.8666016 0.8909383 2.0909376 0.66660156 2.3666016 0.66660156 z M 2.3666016 1 C 2.2747657 1 2.2 1.0746096 2.2 1.1666016 C 2.2 1.2585935 2.2747657 1.3333984 2.3666016 1.3333984 L 4.0333984 1.3333984 C 4.1252343 1.3333984 4.2 1.2585933 4.2 1.1666016 C 4.2 1.0746097 4.1252343 1 4.0333984 1 L 2.3666016 1 z M 2.3667969 2.6666016 C 2.0909574 2.6666016 1.8667969 2.8909384 1.8667969 3.1666016 L 1.8667969 4.3333984 L 1.7001953 4.3333984 C 1.5163675 4.3333984 1.3667969 4.4827545 1.3667969 4.6666016 L 1.3667969 8.6666016 C 1.3667969 8.8504294 1.5163477 9 1.7001953 9 L 2.3667969 9 L 2.3667969 9.6666016 C 2.3667969 9.850429 2.5161526 10 2.7 10 L 3.7 10 C 3.8838278 10 4.0333984 9.8504484 4.0333984 9.6666016 L 4.0333984 9 L 4.7 9 C 4.8838278 9 5.0333984 8.8504488 5.0333984 8.6666016 L 5.0333984 4.6666016 C 5.0333788 4.4827739 4.8838474 4.3333984 4.7 4.3333984 L 4.5333984 4.3333984 L 4.5333984 3.1666016 C 4.5333984 2.8909384 4.3090622 2.6666016 4.0333984 2.6666016 L 2.3667969 2.6666016 z M 2.3667969 3 L 4.0333984 3 C 4.1252343 3 4.2 3.0746097 4.2 3.1666016 L 4.2 4.3333984 L 2.2 4.3333984 L 2.2 3.1666016 C 2.2 3.0746097 2.274805 3 2.3667969 3 z M 3.7 5.5 C 3.7426465 5.5 3.7853908 5.5162502 3.8179688 5.5488281 C 3.8829687 5.6140041 3.8829687 5.719415 3.8179688 5.7845703 L 3.1023438 6.5 L 3.7 6.5 C 3.72166 6.5 3.7431466 6.5044106 3.7634766 6.5128906 C 3.8043165 6.5297306 3.836875 6.5620897 3.8537109 6.6029297 C 3.8706909 6.6435936 3.8705509 6.6896095 3.8537109 6.7302734 C 3.8453709 6.7507834 3.8331034 6.7690643 3.8177734 6.7845703 L 2.8179688 7.7845703 C 2.7852928 7.8170703 2.7426953 7.8333984 2.7001953 7.8333984 C 2.6575194 7.8333984 2.6147265 7.8170803 2.5822266 7.7845703 C 2.5170506 7.7193964 2.5170506 7.6139837 2.5822266 7.5488281 L 3.2976563 6.8333984 L 2.7 6.8333984 C 2.678164 6.8333984 2.6566601 6.8288278 2.6363281 6.8205078 C 2.5954882 6.8036678 2.563125 6.7711134 2.5462891 6.7302734 C 2.5294491 6.6896095 2.5294491 6.6435936 2.5462891 6.6029297 C 2.5546291 6.5824197 2.5668946 6.5641388 2.5822266 6.5486328 L 3.5822266 5.5488281 C 3.6147265 5.5162502 3.6573535 5.5 3.7 5.5 z M 2.7 9 L 3.7 9 L 3.7001953 9.6666016 L 2.7 9.6666016 L 2.7 9 z M 2.5599609 17.2 C 2.3246252 17.2 2.1333984 17.391458 2.1333984 17.626758 L 2.1333984 18.480078 L 0.85332031 18.480078 C 0.61798655 18.480078 0.42675781 18.671341 0.42675781 18.906641 L 0.42675781 22.74668 C 0.42675781 22.982013 0.61802055 23.173242 0.85332031 23.173242 L 0.85332031 26.373242 C 0.85332031 26.491206 0.94884168 26.586719 1.0666016 26.586719 L 5.3333984 26.586719 C 5.4511443 26.586719 5.5466797 26.491222 5.5466797 26.373242 L 5.5466797 23.173242 C 5.7819795 23.173242 5.9733875 22.981979 5.9734375 22.74668 L 5.9734375 18.906641 C 5.9734375 18.671307 5.7819795 18.480078 5.5466797 18.480078 L 4.2667969 18.480078 L 4.2667969 17.626758 C 4.2667969 17.391424 4.0753388 17.2 3.8400391 17.2 L 2.5599609 17.2 z M 1.9199219 24.026758 L 2.7734375 24.026758 C 2.8911834 24.026758 2.9867188 24.122059 2.9867188 24.240039 L 2.9867188 25.093359 C 2.9867188 25.211343 2.8910021 25.306641 2.7732422 25.306641 L 1.9199219 25.306641 C 1.802178 25.306641 1.7066406 25.211339 1.7066406 25.093359 L 1.7066406 24.240039 C 1.7066406 24.122055 1.802162 24.026758 1.9199219 24.026758 z M 3.6267578 24.026758 L 4.4800781 24.026758 C 4.597824 24.026758 4.6933594 24.122059 4.6933594 24.240039 L 4.6933594 25.093359 C 4.6933594 25.211343 4.597838 25.306641 4.4800781 25.306641 L 3.6267578 25.306641 C 3.5090119 25.306641 3.4132813 25.211339 3.4132813 25.093359 L 3.4132813 24.240039 C 3.4132812 24.122055 3.5090179 24.026758 3.6267578 24.026758 z M 2.1333984 24.45332 L 2.1333984 24.879883 L 2.5599609 24.879883 L 2.5599609 24.45332 L 2.1333984 24.45332 z M 3.8400391 24.45332 L 3.8400391 24.879883 L 4.2666016 24.879883 L 4.2666016 24.45332 L 3.8400391 24.45332 z M 0.64003906 27.013281 C 0.28718942 27.013281 0 27.300473 0 27.65332 L 0 29.359961 C 1.1842367e-16 29.712811 0.28718942 30 0.64003906 30 L 5.7599609 30 C 6.1128106 30 6.4 29.712811 6.4 29.359961 L 6.4 27.65332 C 6.4 27.300473 6.1128106 27.013281 5.7599609 27.013281 L 0.64003906 27.013281 z M 1.0666016 27.866602 L 5.3333984 27.866602 C 5.4511443 27.866602 5.5466797 27.962098 5.5466797 28.080078 L 5.5466797 28.933398 C 5.5466797 29.051382 5.4511383 29.14668 5.3333984 29.14668 L 1.0666016 29.14668 C 0.94885568 29.14668 0.85332031 29.051378 0.85332031 28.933398 L 0.85332031 28.080078 C 0.85332031 27.962114 0.94884168 27.866602 1.0666016 27.866602 z M 1.2800781 28.293359 L 1.2800781 28.719922 L 1.7068359 28.719922 C 1.7068359 28.601958 1.8023573 28.506641 1.9201172 28.506641 C 2.0378631 28.506641 2.1333984 28.601942 2.1333984 28.719922 L 2.3466797 28.719922 C 2.3466797 28.601958 2.4423964 28.506641 2.5601563 28.506641 C 2.6779001 28.506641 2.7734375 28.601942 2.7734375 28.719922 L 2.9867188 28.719922 C 2.9867188 28.601958 3.0822401 28.506641 3.2 28.506641 C 3.3177459 28.506641 3.4132813 28.601942 3.4132813 28.719922 L 3.6267578 28.719922 C 3.6267578 28.601958 3.7222792 28.506641 3.8400391 28.506641 C 3.9577829 28.506641 4.0533203 28.601942 4.0533203 28.719922 L 4.2666016 28.719922 C 4.2666016 28.601958 4.3623182 28.506641 4.4800781 28.506641 C 4.597824 28.506641 4.6933594 28.601942 4.6933594 28.719922 L 5.1199219 28.719922 L 5.1199219 28.293359 L 1.2800781 28.293359 z " />
	<g style="fill:#ff0000;">
		<path d="M 0.55287215,11.5143 H 0.24429206 v 0.104373 h 0.19815682 v 0.546066 H 0.55287215 Z M 0.30177266,11.07412 c 0.0786577,0.08471 0.17244182,0.202695 0.2132833,0.276814 l 0.0922715,-0.06353 C 0.56346068,11.213284 0.46816389,11.099835 0.38950622,11.018152 Z m 0.19210624,1.010449 c -0.0741197,0 -0.17244182,0.08319 -0.27076391,0.201182 l 0.0847083,0.10891 c 0.0680691,-0.104372 0.13613828,-0.201182 0.18303035,-0.201182 0.0332782,0 0.0862209,0.05446 0.14823946,0.09681 0.11042327,0.06807 0.23748566,0.08622 0.43564244,0.08622 0.1527774,0 0.4326172,-0.01059 0.5400152,-0.01664 0.00151,-0.0363 0.021177,-0.09681 0.034791,-0.127062 -0.1512648,0.01664 -0.3842125,0.03025 -0.5702681,0.03025 -0.17849242,0 -0.31009276,-0.0121 -0.41144014,-0.07714 -0.0877336,-0.05446 -0.1240371,-0.101347 -0.17395446,-0.101347 z m 0.6232108,-0.745736 v 0.883386 h 0.1179865 v -0.883386 z m -0.46135752,0.499174 v 0.107398 H 1.5996242 v -0.107398 z m 0.0105885,-0.679179 v 0.09984 H 1.5723966 v -0.09984 z m 0.0801703,0.494636 c 0.0136138,-0.01361 0.0650438,-0.02118 0.13765092,-0.02118 H 1.5285298 V 11.524889 H 0.81456017 l -0.0680691,0.0363 z m 0,0 c 0,-0.0242 0.0847083,-0.06353 0.0847083,-0.06353 v -0.0015 C 0.92498344,11.443206 1.0187676,11.232948 1.0868367,11.033278 l -0.11798649,-0.03177 c -0.05143,0.186056 -0.1467268,0.391776 -0.1784924,0.444718 -0.030253,0.05446 -0.0544553,0.09227 -0.081683,0.09832 0.0136138,0.03025 0.0332782,0.08471 0.0378162,0.108911 z m 0.98473357,0.151265 0.030253,0.110423 c 0.1210118,-0.03933 0.2783272,-0.08925 0.4265666,-0.139164 L 2.171405,11.670103 c -0.1618533,0.05294 -0.3282445,0.105885 -0.4401804,0.134626 z m 0.021177,-0.499174 V 11.41144 H 2.1895568 V 11.305555 Z M 1.930894,11.001513 v 1.255497 c 0,0.01966 -0.00605,0.02571 -0.024202,0.02571 -0.018152,0.0015 -0.071095,0.0015 -0.1316004,-0.0015 0.015127,0.03025 0.02874,0.07866 0.031766,0.105885 0.089246,0.0015 0.1452142,-0.003 0.1800051,-0.01966 0.036304,-0.01815 0.049917,-0.04992 0.049917,-0.110424 v -1.255497 z m 0.3388331,0.158828 v 0.09832 h 0.8213676 v -0.09832 z m -0.052943,0.352447 v 0.09983 h 0.9121265 v -0.09983 z m 0.1633659,-0.201182 c 0.042354,0.06051 0.089246,0.143701 0.107398,0.198156 l 0.092272,-0.04387 c -0.021177,-0.05143 -0.068069,-0.131601 -0.1134486,-0.190594 z m 0.4719461,-0.03479 c -0.02874,0.07109 -0.086221,0.17698 -0.1316004,0.242023 l 0.090759,0.03025 c 0.046892,-0.06202 0.1013474,-0.157315 0.1482394,-0.242023 z M 2.19712,11.777501 v 0.09832 h 0.94843 v -0.09832 z m 0.6580017,0.06807 c -0.072607,0.275302 -0.266226,0.402364 -0.6806914,0.446231 0.018152,0.0242 0.037816,0.06656 0.046892,0.09681 0.446231,-0.06504 0.6625396,-0.207233 0.7427099,-0.524889 z m -0.5611923,0.220847 0.1134486,0.0121 C 2.4875483,11.97112 2.6009969,11.791115 2.6660407,11.63985 L 2.561668,11.618673 c -0.062019,0.146727 -0.1769797,0.33127 -0.2677386,0.447744 z m 0,0 c 0.2586628,0.07563 0.5778314,0.217821 0.7351467,0.329757 l 0.075632,-0.08773 C 2.9368046,12.193479 2.6146107,12.060366 2.3635112,11.989272 Z m 0.2541248,-1.036164 c 0.036304,0.05899 0.078658,0.140676 0.095297,0.192106 l 0.1104233,-0.0242 C 2.7356225,11.14824 2.6932684,11.069582 2.6524269,11.012101 Z m 0.9030506,0.517326 v 0.105885 h 1.0013726 v -0.105885 z m 0.4341298,-0.544553 v 1.140536 c 0,0.17698 0.049917,0.222359 0.2193339,0.222359 0.039329,0 0.2949663,0 0.3358077,0 0.1603407,0 0.1981569,-0.08017 0.2178213,-0.310093 -0.036303,-0.0091 -0.084708,-0.02874 -0.1134486,-0.04992 -0.012101,0.195131 -0.027228,0.245049 -0.1104232,0.245049 -0.054455,0 -0.2768145,0 -0.322194,0 -0.089246,0 -0.1073979,-0.01664 -0.1073979,-0.105886 v -1.142048 z m -0.4250539,0.217821 v 0.110423 h 0.9348161 v 0.541528 H 3.4601807 v 0.110423 H 4.509958 v -0.762374 z m -0.068069,0 v 0.854646 H 3.510098 v -0.854646 z m 2.0768649,0.284378 c 0.1497521,0.181517 0.3191687,0.431104 0.3917757,0.582369 l 0.081683,-0.06353 C 5.8668027,11.872798 5.6943609,11.630774 5.5446088,11.449257 Z m 0.3524469,-0.133113 c -0.071094,0.278327 -0.1936189,0.530939 -0.3615227,0.692792 0.021177,0.01815 0.058993,0.05748 0.075632,0.07563 0.1694165,-0.176979 0.3010169,-0.446231 0.3826998,-0.747247 z m -0.527914,-0.139164 v 0.107398 h 0.8485953 v -0.107398 z m 0.037816,0.226897 v 0.850108 H 6.0649596 V 12.202555 H 5.4387235 v -0.74271 z m 0.6640523,-0.0076 v 0.937841 H 6.0997504 V 11.452282 Z M 5.5809124,11.033278 c 0.040841,0.0711 0.087733,0.164879 0.1089106,0.223872 l 0.1043727,-0.03782 C 5.7715059,11.161854 5.7231012,11.068069 5.6807471,11 Z m -0.6958179,0.02118 v 0.09227 h 0.3206813 v -0.09227 z m 0.2601754,0 v 1.202554 c 0,0.01815 -0.00605,0.02269 -0.021177,0.0242 -0.016639,0 -0.062018,0 -0.1119359,-0.003 0.013614,0.02874 0.02874,0.07412 0.031766,0.101348 0.075632,0 0.1225244,-0.0015 0.1558027,-0.01966 0.031766,-0.01664 0.042354,-0.0484 0.042354,-0.101347 v -1.204067 z m -0.2964789,0 v 0.559679 c 0,0.216309 -0.00605,0.512788 -0.090759,0.721533 0.02269,0.0121 0.066556,0.04387 0.084708,0.06353 0.093784,-0.222359 0.1073979,-0.556654 0.1073979,-0.786577 v -0.558166 z m 0.027228,0.356984 v 0.0953 h 0.3221939 v -0.0953 z m 0,0.350935 v 0.09832 h 0.3221939 v -0.09832 z" />
		<path d="m 0.56724281,14.17656 q -0.12706239,0 -0.23294772,-0.04387 Q 0.22992241,14.087314 0.15580269,14.011681 0.08168296,13.934536 0.04084148,13.831676 0,13.727304 0,13.609317 0,13.48528 0.04386677,13.38242 q 0.04386678,-0.104373 0.11949915,-0.180005 0.077145,-0.07563 0.18000506,-0.117986 0.10437268,-0.04236 0.22387183,-0.04236 0.077145,0 0.14823945,0.01966 0.0726071,0.01966 0.13462563,0.05597 0.0635312,0.03479 0.11344857,0.08622 0.05143,0.04992 0.0877335,0.111936 l -0.18000504,0.114961 q -0.0484047,-0.08622 -0.12252445,-0.136138 -0.0741197,-0.04992 -0.1815177,-0.04992 -0.0786577,0 -0.14521416,0.02874 -0.0665565,0.02723 -0.11496121,0.07714 -0.0484047,0.0484 -0.0756324,0.114962 -0.0272276,0.06656 -0.0272276,0.143701 0,0.07563 0.0272276,0.142189 0.0272277,0.06504 0.0741197,0.114961 0.0484047,0.04841 0.11344856,0.07714 0.0665565,0.02723 0.14370152,0.02723 0.11496121,0 0.19361888,-0.05748 0.0801703,-0.05899 0.12403709,-0.149752 l 0.18756826,0.09832 q -0.036304,0.07109 -0.0892462,0.128575 -0.05143,0.05748 -0.11647386,0.09984 -0.0635312,0.04084 -0.13916357,0.06353 -0.0741197,0.02269 -0.15580269,0.02269 z m 1.01196129,0.003 q -0.095297,0 -0.1800051,-0.03479 -0.083196,-0.0363 -0.1452141,-0.09832 -0.062019,-0.06353 -0.098322,-0.146726 -0.034791,-0.08471 -0.034791,-0.180006 0,-0.09681 0.034791,-0.180005 0.036304,-0.08471 0.098322,-0.146726 0.062018,-0.06202 0.1452141,-0.09832 0.084708,-0.0363 0.1800051,-0.0363 0.095297,0 0.1784924,0.0363 0.083196,0.0363 0.1452142,0.09832 0.063531,0.06202 0.098322,0.146726 0.036304,0.0832 0.036304,0.180005 0,0.0953 -0.036304,0.180006 -0.034791,0.08319 -0.098322,0.146726 -0.062019,0.06202 -0.1452142,0.09832 -0.083196,0.03479 -0.1784924,0.03479 z m 0,-0.192106 q 0.054455,0 0.1013474,-0.02118 0.046892,-0.02118 0.081683,-0.05748 0.034791,-0.0363 0.054455,-0.08471 0.019664,-0.04992 0.019664,-0.104373 0,-0.05597 -0.019664,-0.104372 -0.019664,-0.04992 -0.054455,-0.08622 -0.034791,-0.0363 -0.081683,-0.05748 -0.046892,-0.02118 -0.1013474,-0.02118 -0.054455,0 -0.10286,0.02118 -0.046892,0.02118 -0.081683,0.05748 -0.033278,0.0363 -0.052943,0.08622 -0.019664,0.04841 -0.019664,0.104372 0,0.05446 0.019664,0.104373 0.019664,0.0484 0.052943,0.08471 0.034791,0.0363 0.081683,0.05748 0.048405,0.02118 0.10286,0.02118 z m 0.5475782,-0.710944 h 0.2026948 v 0.10891 q 0.043867,-0.05748 0.1104232,-0.09227 0.068069,-0.03479 0.1542901,-0.03479 0.1648786,0 0.2571501,0.09984 0.093784,0.09983 0.093784,0.278327 v 0.524889 H 2.7378919 v -0.503712 q 0,-0.10286 -0.049917,-0.161853 -0.049917,-0.06051 -0.1497521,-0.06051 -0.087734,0 -0.1482394,0.06202 -0.058993,0.06202 -0.058993,0.178493 v 0.48556 H 2.1267823 Z m 0.9363282,0 h 0.2026947 v 0.10891 q 0.043867,-0.05748 0.1104233,-0.09227 0.068069,-0.03479 0.1542901,-0.03479 0.1648785,0 0.25715,0.09984 0.093784,0.09983 0.093784,0.278327 v 0.524889 H 3.6742201 v -0.503712 q 0,-0.10286 -0.049917,-0.161853 -0.049917,-0.06051 -0.1497521,-0.06051 -0.087734,0 -0.1482395,0.06202 -0.058993,0.06202 -0.058993,0.178493 v 0.48556 H 3.0631105 Z m 1.3749957,0.90305 q -0.1043727,0 -0.1905936,-0.03479 -0.086221,-0.0363 -0.1482395,-0.09832 -0.060506,-0.06202 -0.095297,-0.145214 -0.033278,-0.08471 -0.033278,-0.180005 0,-0.09681 0.034791,-0.181518 0.036303,-0.08471 0.098322,-0.146726 0.062019,-0.06202 0.1452142,-0.09832 0.084708,-0.0363 0.1815177,-0.0363 0.098322,0 0.1815177,0.03479 0.084708,0.03328 0.1452141,0.0953 0.060506,0.06051 0.093784,0.143701 0.034791,0.0832 0.034791,0.181518 v 0.07714 H 4.1658296 q 0.021177,0.09378 0.092271,0.151265 0.071095,0.05748 0.1800051,0.05748 0.086221,0 0.1497521,-0.04235 0.063531,-0.04235 0.095297,-0.113448 l 0.1679039,0.09681 q -0.057481,0.107398 -0.1618533,0.173954 -0.1028601,0.06504 -0.2510995,0.06504 z m -0.00756,-0.741197 q -0.092271,0 -0.1603407,0.04992 -0.066556,0.04992 -0.093784,0.131601 h 0.5021989 q -0.02269,-0.08925 -0.087734,-0.134626 -0.065044,-0.04689 -0.1603406,-0.04689 z m 0.9771699,0.741197 q -0.096809,0 -0.1815177,-0.0363 -0.083196,-0.0363 -0.1452141,-0.09832 -0.062019,-0.06202 -0.098322,-0.145214 -0.034791,-0.08471 -0.034791,-0.180006 0,-0.09681 0.034791,-0.180005 0.036303,-0.08471 0.098322,-0.146726 0.062018,-0.06353 0.1452141,-0.09832 0.084708,-0.0363 0.1815177,-0.0363 0.07412,0 0.1391636,0.02118 0.066556,0.01966 0.1210118,0.05597 0.054455,0.0363 0.095297,0.08622 0.040841,0.04992 0.066556,0.110423 l -0.1830304,0.07715 q -0.030253,-0.07261 -0.093784,-0.114961 -0.062018,-0.04387 -0.1437015,-0.04387 -0.055968,0 -0.1043727,0.02118 -0.046892,0.02118 -0.083196,0.05748 -0.034791,0.0363 -0.054455,0.08622 -0.019664,0.04841 -0.019664,0.104372 0,0.05446 0.019664,0.104373 0.019664,0.0484 0.054455,0.08471 0.036303,0.0363 0.083196,0.05748 0.048405,0.02118 0.1058853,0.02118 0.086221,0 0.1467268,-0.04538 0.062019,-0.04689 0.092272,-0.119499 l 0.1830304,0.07866 q -0.025715,0.06202 -0.066556,0.113449 -0.040841,0.04992 -0.095297,0.08773 -0.052943,0.0363 -0.1194991,0.05748 -0.066556,0.01966 -0.1437016,0.01966 z m 0.4553075,-0.90305 h 0.1512648 v -0.134626 l 0.20572,-0.140676 v 0.275302 h 0.1800051 v 0.18303 H 6.2200052 v 0.33127 q 0,0.05748 0.00605,0.09378 0.00605,0.03479 0.024202,0.05445 0.019664,0.01815 0.054455,0.0242 0.036303,0.0061 0.095297,0.0061 v 0.192107 H 6.37127 q -0.1028601,0 -0.1724418,-0.01815 -0.068069,-0.01815 -0.1089107,-0.06051 -0.040841,-0.04387 -0.058993,-0.113449 -0.016639,-0.07109 -0.016639,-0.176979 V 13.459565 H 5.8630204 Z" />
		<path d="m 1.2645721,15.167344 h 0.1512647 v -0.134625 l 0.2057201,-0.140677 v 0.275302 H 1.801562 v 0.18303 H 1.6215569 v 0.33127 q 0,0.05748 0.00605,0.09378 0.00605,0.03479 0.024202,0.05446 0.019664,0.01815 0.054455,0.0242 0.036304,0.0061 0.095297,0.0061 v 0.192106 h -0.02874 q -0.1028601,0 -0.1724419,-0.01815 -0.068069,-0.01815 -0.1089106,-0.06051 -0.040841,-0.04387 -0.058993,-0.113448 -0.016639,-0.07109 -0.016639,-0.17698 V 15.350374 H 1.2645721 Z m 1.0346505,0.903051 q -0.095297,0 -0.1800051,-0.03479 -0.083196,-0.0363 -0.1452142,-0.09832 -0.062018,-0.06353 -0.098322,-0.146727 -0.034791,-0.08471 -0.034791,-0.180005 0,-0.09681 0.034791,-0.180005 0.036303,-0.08471 0.098322,-0.146727 0.062019,-0.06202 0.1452142,-0.09832 0.084708,-0.0363 0.1800051,-0.0363 0.095297,0 0.1784924,0.0363 0.083196,0.0363 0.1452141,0.09832 0.063531,0.06202 0.098322,0.146727 0.036304,0.08319 0.036304,0.180005 0,0.0953 -0.036304,0.180005 -0.034791,0.0832 -0.098322,0.146727 -0.062018,0.06202 -0.1452141,0.09832 -0.083196,0.03479 -0.1784924,0.03479 z m 0,-0.192107 q 0.054455,0 0.1013473,-0.02118 0.046892,-0.02118 0.081683,-0.05748 0.034791,-0.0363 0.054455,-0.08471 0.019664,-0.04992 0.019664,-0.104373 0,-0.05597 -0.019664,-0.104373 -0.019664,-0.04992 -0.054455,-0.08622 -0.034791,-0.0363 -0.081683,-0.05748 -0.046892,-0.02118 -0.1013473,-0.02118 -0.054455,0 -0.1028601,0.02118 -0.046892,0.02118 -0.081683,0.05748 -0.033278,0.0363 -0.052943,0.08622 -0.019664,0.04841 -0.019664,0.104373 0,0.05446 0.019664,0.104373 0.019664,0.0484 0.052943,0.08471 0.034791,0.0363 0.081683,0.05748 0.048405,0.02118 0.1028601,0.02118 z M 3.2219387,14.94801 h 0.3781619 q 0.086221,0 0.158828,0.03177 0.072607,0.03025 0.1255497,0.08319 0.052943,0.05294 0.083196,0.12555 0.030253,0.07109 0.030253,0.152778 0,0.08168 -0.030253,0.15429 -0.030253,0.07261 -0.083196,0.125549 -0.052943,0.05294 -0.1270624,0.08471 -0.072607,0.03025 -0.158828,0.03025 H 3.4276588 v 0.316143 H 3.2219387 Z m 0.2057201,0.190594 v 0.406902 h 0.1573153 q 0.045379,0 0.083196,-0.01513 0.037816,-0.01664 0.065044,-0.04387 0.027228,-0.02874 0.042354,-0.06504 0.015127,-0.03782 0.015127,-0.08017 0,-0.04235 -0.015127,-0.07866 -0.015127,-0.03782 -0.042354,-0.06504 -0.027228,-0.02723 -0.065044,-0.04235 -0.037816,-0.01664 -0.083196,-0.01664 z m 1.2252437,0.928765 q -0.1270624,0 -0.2329477,-0.04387 -0.1043727,-0.04538 -0.1784924,-0.121012 -0.07412,-0.07714 -0.1149612,-0.180005 -0.040841,-0.104373 -0.040841,-0.222359 0,-0.124038 0.043867,-0.226898 0.043867,-0.104372 0.1194991,-0.180005 0.077145,-0.07563 0.1800051,-0.117986 0.1043727,-0.04235 0.2238718,-0.04235 0.077145,0 0.1482395,0.01966 0.072607,0.01966 0.1346256,0.05597 0.063531,0.03479 0.1134486,0.08622 0.05143,0.04992 0.087733,0.111936 l -0.180005,0.114961 q -0.048405,-0.08622 -0.1225245,-0.136138 -0.07412,-0.04992 -0.1815177,-0.04992 -0.078658,0 -0.1452141,0.02874 -0.066556,0.02723 -0.1149613,0.07714 -0.048405,0.0484 -0.075632,0.114961 -0.027228,0.06656 -0.027228,0.143702 0,0.07563 0.027228,0.142188 0.027228,0.06504 0.07412,0.114962 0.048405,0.0484 0.1134486,0.07714 0.066556,0.02723 0.1437015,0.02723 0.1149612,0 0.1936189,-0.05748 0.08017,-0.05899 0.1240371,-0.149752 l 0.1875682,0.09832 q -0.036303,0.07109 -0.089246,0.128575 -0.05143,0.05748 -0.1164738,0.09984 -0.063531,0.04084 -0.1391636,0.06353 -0.07412,0.02269 -0.1558027,0.02269 z" />
	</g>
</svg>
