<?xml version="1.0" encoding="UTF-8" standalone="no"?>
<svg width="1080"
	 height="2400"
	 viewBox="0 0 1080 2400"
	 xmlns="http://www.w3.org/2000/svg"
	 xmlns:svg="http://www.w3.org/2000/svg">
	<rect style="fill:#00c0c0"
		  width="1080"
		  height="2400"
		  x="0"
		  y="0" />
	<text xml:space="preserve"
		  style="font-style:normal;font-variant:normal;font-weight:normal;font-stretch:normal;font-size:46px;line-height:1.2;font-family:'Samsung Sharp Sans';-inkscape-font-specification:'Samsung Sharp Sans';text-align:start;text-anchor:start;fill:#ffffff;fill-opacity:1;stroke:none;stroke-linecap:round;paint-order:stroke markers fill"
		  x="80.181351"
		  y="1409.3896">

		<tspan x="80.181351"
			   y="1409.3896"
			   style="font-size:46px;line-height:1.2">...
		</tspan>

		<tspan x="80.181351"
			   y="1469.8206"
			   style="font-size:46px;line-height:1.2">볼륨상 키길게 누르기 : 디바이스 잠금 해제모드
		</tspan>

		<tspan x="80.181351"
			   y="1525.0206"
			   style="font-size:46px;line-height:1.2">...
		</tspan>

	</text>
	<text xml:space="preserve"
		  style="font-size:52px;line-height:1;font-family:'Samsung Sharp Sans';-inkscape-font-specification:'Samsung Sharp Sans';text-align:center;text-anchor:middle;fill:#ffffff;fill-opacity:1;stroke:none;stroke-linecap:round;paint-order:stroke markers fill"
		  x="561.52997"
		  y="563.23853">

		<tspan x="561.52997"
			   y="563.23853"
			   style="font-style:normal;font-variant:normal;font-weight:normal;font-stretch:normal;font-size:52px;font-family:'Samsung Sharp Sans';-inkscape-font-specification:'Samsung Sharp Sans';fill:#ffffff">Warning 경고 警告</tspan>

	</text>

	<path style="fill:#ffffff;stroke-linecap:round;paint-order:stroke markers fill"
		  d="M 555 330 L 460 480 L 650 480 L 555 330 z M 547.41992 374.70508 L 562.69531 374.70508 L 562.69531 388.04492 C 562.69531 391.84492 562.6188 395.83368 562.4668 400.01367 C 562.3148 404.11767 562.0872 408.22218 561.7832 412.32617 C 561.4792 416.43017 561.09858 420.45816 560.64258 424.41016 C 560.26258 428.28615 559.80739 431.93352 559.27539 435.35352 L 550.95312 435.35352 C 550.42113 431.93352 549.9267 428.28615 549.4707 424.41016 C 549.0907 420.45816 548.74931 416.43017 548.44531 412.32617 C 548.14131 408.22218 547.87448 404.11767 547.64648 400.01367 C 547.49448 395.83368 547.41992 391.84492 547.41992 388.04492 L 547.41992 374.70508 z M 555.05664 440.71289 C 557.94464 440.71289 560.1872 441.58599 561.7832 443.33398 C 563.4552 445.00598 564.29102 447.24855 564.29102 450.06055 C 564.29102 452.79654 563.4552 455.03716 561.7832 456.78516 C 560.1112 458.45715 557.83136 459.29492 554.94336 459.29492 C 552.05536 459.29492 549.77551 458.45715 548.10352 456.78516 C 546.50752 455.03716 545.70898 452.79654 545.70898 450.06055 C 545.70898 447.24855 546.5448 445.00598 548.2168 443.33398 C 549.8888 441.58599 552.16864 440.71289 555.05664 440.71289 z " />
	<text xml:space="preserve"
		  style="font-style:normal;font-variant:normal;font-weight:normal;font-stretch:normal;font-size:144px;line-height:1.4;font-family:'Samsung Sharp Sans';-inkscape-font-specification:'Samsung Sharp Sans';text-align:center;text-anchor:middle;fill:#ffffff;fill-opacity:1;stroke:none;stroke-linecap:round;paint-order:stroke markers fill"
		  x="469.4274"
		  y="743.7793">

		<tspan x="469.4274"
			   y="743.7793"
			   style="font-size:144px;line-height:1.4;text-align:start;text-anchor:start;fill:#ffffff;fill-opacity:1">......
		</tspan>

	</text>
	<text xml:space="preserve"
		  style="font-size:28px;font-family:'Samsung Sharp Sans';-inkscape-font-specification:'Samsung Sharp Sans';text-align:center;text-anchor:middle;fill:#00c0c0;fill-opacity:1;stroke:#ffffff;stroke-linecap:round;paint-order:stroke markers fill"
		  x="79.687752"
		  y="907.24658">

		<tspan x="79.687752"
			   y="907.24658"
			   style="font-size:28px;fill:#ffffff;stroke:none" />

	</text>
	<text xml:space="preserve"
		  style="font-style:normal;font-variant:normal;font-weight:normal;font-stretch:normal;font-size:38px;line-height:1.5;font-family:'Samsung Sharp Sans';-inkscape-font-specification:'Samsung Sharp Sans';text-align:start;text-anchor:start;fill:#ffffff;fill-opacity:1;stroke:none;stroke-linecap:round;paint-order:stroke markers fill"
		  x="73.323814"
		  y="916.42841">

		<tspan x="73.323814"
			   y="916.42841"
			   style="font-size:38px;line-height:1.5">...
		</tspan>

		<tspan x="73.323814"
			   y="973.42841"
			   style="font-size:38px;line-height:1.5">volume up long press : Device unlock mode
		</tspan>

		<tspan x="73.323814"
			   y="1030.4285"
			   style="font-size:38px;line-height:1.5">...
		</tspan>

	</text>
	<text xml:space="preserve"
		  style="font-style:normal;font-variant:normal;font-weight:normal;font-stretch:normal;font-size:144px;line-height:1.5;font-family:'Samsung Sharp Sans';-inkscape-font-specification:'Samsung Sharp Sans';text-align:start;text-anchor:start;fill:#ffffff;fill-opacity:1;stroke:none;stroke-linecap:round;paint-order:stroke markers fill"
		  x="477.46088"
		  y="1241.6515">

		<tspan x="477.46088"
			   y="1241.6515">......
		</tspan>

	</text>
	<text xml:space="preserve"
		  style="font-style:normal;font-variant:normal;font-weight:normal;font-stretch:normal;font-size:144px;line-height:1.5;font-family:'Samsung Sharp Sans';-inkscape-font-specification:'Samsung Sharp Sans';text-align:start;text-anchor:start;fill:#ffffff;fill-opacity:1;stroke:none;stroke-linecap:round;paint-order:stroke markers fill"
		  x="484.70334"
		  y="1757.5548">

		<tspan x="484.70334"
			   y="1757.5548">......
		</tspan>

	</text>
	<text xml:space="preserve"
		  style="font-style:normal;font-variant:normal;font-weight:normal;font-stretch:normal;font-size:46px;line-height:1.2;font-family:'Samsung Sharp Sans';-inkscape-font-specification:'Samsung Sharp Sans';text-align:start;text-anchor:start;fill:#ffffff;fill-opacity:1;stroke:none;stroke-linecap:round;paint-order:stroke markers fill"
		  x="91.631622"
		  y="1948.5531">

		<tspan x="91.631622"
			   y="1948.5531">...
		</tspan>

		<tspan x="91.631622"
			   y="2008.984">长按音量增加键 : 设备解锁模式
		</tspan>

		<tspan x="91.631622"
			   y="2064.1841">...
		</tspan>

	</text>

	<path style="fill:#ffffff;fill-opacity:1;stroke:#ffffff;stroke-linecap:round;paint-order:stroke markers fill;stroke-width:4;stroke-dasharray:none"
		  d="M 1028,1080 H 85" />

	<path style="fill:#ffffff;fill-opacity:1;stroke:#ffffff;stroke-linecap:round;paint-order:stroke markers fill;stroke-width:4;stroke-dasharray:none"
		  d="M 1028.5,1570.5 H 85.5" />


</svg>
