<?xml version="1.0" encoding="UTF-8" standalone="no"?>
<svg width="1080"
	 height="2400"
	 viewBox="0 0 1080 2400"
	 xmlns="http://www.w3.org/2000/svg"
	 xmlns:svg="http://www.w3.org/2000/svg">

	<style>
		svg {
			background-color: #00c0c0;
		}

		text {
			font-family: 'Samsung Sharp Sans';
			fill: #ffffff;
			font-size: 46px;
		}

		path {
			stroke: #ffffff;
			stroke-width: 4;
			fill: #ffffff;
		}
	</style>


	<text>
		<tspan x="561.52997"
			   y="563.23853"
			   style="font-size:52px;text-anchor:middle">Warning 경고 警告
		</tspan>
	</text>

	<path d="M 555 330 L 460 480 L 650 480 L 555 330 z M 547.41992 374.70508 L 562.69531 374.70508 L 562.69531 388.04492 C 562.69531 391.84492 562.6188 395.83368 562.4668 400.01367 C 562.3148 404.11767 562.0872 408.22218 561.7832 412.32617 C 561.4792 416.43017 561.09858 420.45816 560.64258 424.41016 C 560.26258 428.28615 559.80739 431.93352 559.27539 435.35352 L 550.95312 435.35352 C 550.42113 431.93352 549.9267 428.28615 549.4707 424.41016 C 549.0907 420.45816 548.74931 416.43017 548.44531 412.32617 C 548.14131 408.22218 547.87448 404.11767 547.64648 400.01367 C 547.49448 395.83368 547.41992 391.84492 547.41992 388.04492 L 547.41992 374.70508 z M 555.05664 440.71289 C 557.94464 440.71289 560.1872 441.58599 561.7832 443.33398 C 563.4552 445.00598 564.29102 447.24855 564.29102 450.06055 C 564.29102 452.79654 563.4552 455.03716 561.7832 456.78516 C 560.1112 458.45715 557.83136 459.29492 554.94336 459.29492 C 552.05536 459.29492 549.77551 458.45715 548.10352 456.78516 C 546.50752 455.03716 545.70898 452.79654 545.70898 450.06055 C 545.70898 447.24855 546.5448 445.00598 548.2168 443.33398 C 549.8888 441.58599 552.16864 440.71289 555.05664 440.71289 z " />
	<path d="M 1028,1080 H 85" />
	<path d="M 1028.5,1570.5 H 85.5" />



	<text>
		<tspan x="80"
			   y="916">volume up: Continue
		</tspan>
		<tspan x="80"
			   y="973">volume up long press : Device unlock mode
		</tspan>
		<tspan x="80"
			   y="1030">Volume down: Cancel (restart phone)
		</tspan>

		<tspan x="80"
			   y="1410">볼륨상 키 : 계속 진행
		</tspan>
		<tspan x="80"
			   y="1470">볼륨상 키 길게 누르기 : 디바이스 잠금 해제모드
		</tspan>
		<tspan x="80"
			   y="1525">볼륨하 키 : 쥐소 (휴대쯛 디시 켜기)
		</tspan>

		<tspan x="80"
			   y="1949">音量增大 : 继续
		</tspan>
		<tspan x="80"
			   y="2009">长按音量增加键 : 设备解锁模式
		</tspan>
		<tspan x="80"
			   y="2064">音量减小 : 取消 (重启设备)
		</tspan>
	</text>

	<text style="font-size: 144px;">
		<tspan x="469.4274"
			   y="743.7793">......
		</tspan>
		<tspan x="477.46088"
			   y="1241.6515">......
		</tspan>
		<tspan x="484.70334"
			   y="1757.5548">......
		</tspan>
	</text>



</svg>
