<?xml version="1.0" encoding="UTF-8" standalone="no"?>
<!-- Created with Inkscape (http://www.inkscape.org/) -->

<svg version="1.1"
	 width="1085"
	 height="2220"
	 viewBox="0 0 1085 2220"
	 xmlns:sodipodi="http://sodipodi.sourceforge.net/DTD/sodipodi-0.dtd"
	 xmlns="http://www.w3.org/2000/svg"
	 xmlns:svg="http://www.w3.org/2000/svg">
	<style>
		text,
		tspan {
			font-family: 'Samsung Sharp Sans';

		}

		rect {
			fill: #ececec;
		}
	</style>

	<rect style="fill:#f6f6f6;"
		  width="1085"
		  height="2220"
		  x="0"
		  y="0" />

	<rect width="1015"
		  height="275"
		  x="32"
		  y="150"
		  ry="20"
		  rx="20" />
	<rect width="1015"
		  height="275"
		  x="32"
		  y="460"
		  ry="20"
		  rx="20" />
	<rect width="1015"
		  height="275"
		  x="32"
		  y="765"
		  ry="20"
		  rx="20" />
	<rect width="1015"
		  height="695"
		  x="32"
		  y="1065"
		  ry="20"
		  rx="20" />

	<text style="font-size:32px;fill:#4b4b4b;">
		<tspan x="100"
			   y="320">xx xxx</tspan>
		<tspan x="100"
			   y="352">xx xxx</tspan>
		<tspan x="100"
			   y="384">xx xxx</tspan>
		<tspan x="100"
			   y="627">xx xxx</tspan>
		<tspan x="100"
			   y="659">xx xxx</tspan>
		<tspan x="100"
			   y="691">xx xxx</tspan>
		<tspan x="65"
			   y="841">..................</tspan>
		<tspan x="65"
			   y="1140">..................</tspan>
	</text>



	<text style="font-size:144px;">
		<tspan style="fill:#5aace7;"
			   x="105"
			   y="2225">*</tspan>
		<tspan x="375"
			   y="2225"
			   style="fill:#ececec">*</tspan>
		<tspan x="646"
			   y="2225"
			   style="fill:#4b4b4b">*</tspan>
		<tspan x="910"
			   y="2225"
			   style="fill:#ececec">*</tspan>
	</text>



	<text style="font-size:40px;fill:#4b4b4b;"
		  x="32"
		  y="77">
		<tspan x="32"
			   y="77">Home</tspan>
	</text>
	<text style="font-size:32px;fill:#5aace7;"
		  x="205"
		  y="230">
		<tspan x="205"
			   y="230">Magisk</tspan>
	</text>
	<text style="font-size:48px;fill:#5aace7;"
		  x="205"
		  y="550">
		<tspan x="205"
			   y="550"
			   style="font-size:48px">xxx</tspan>
	</text>
	<text style="font-size:72px;fill:#ff0000;"
		  x="640"
		  y="240">
		<tspan x="640"
			   y="240">安装(Install)</tspan>
	</text>
</svg>
